/* XPM */
static char * close_dark_xpm[] = {
"24 24 139 2",
"  	c #20201F",
". 	c #1F1F20",
"+ 	c #1F1F1F",
"@ 	c #201F1F",
"# 	c #1F201F",
"$ 	c #201F20",
"% 	c #1F2020",
"& 	c #1E1E1E",
"* 	c #1D1E1E",
"= 	c #1D1D1C",
"- 	c #1D1C1C",
"; 	c #1C1C1D",
"> 	c #1C1D1D",
", 	c #1D1D1D",
"' 	c #1C1D1C",
") 	c #1D1C1D",
"! 	c #1B1C1C",
"~ 	c #1C1B1B",
"{ 	c #1B1B1C",
"] 	c #1B1B1B",
"^ 	c #1C1C1B",
"/ 	c #1C1B1C",
"( 	c #1B1C1B",
"_ 	c #1C1C1C",
": 	c #1A1A1A",
"< 	c #1A191A",
"[ 	c #1A1A19",
"} 	c #191918",
"| 	c #181919",
"1 	c #191819",
"2 	c #191818",
"3 	c #181819",
"4 	c #181818",
"5 	c #191919",
"6 	c #181918",
"7 	c #181717",
"8 	c #171718",
"9 	c #181817",
"0 	c #171717",
"a 	c #171817",
"b 	c #171818",
"c 	c #161616",
"d 	c #161516",
"e 	c #161615",
"f 	c #404040",
"g 	c #151616",
"h 	c #151615",
"i 	c #151514",
"j 	c #151515",
"k 	c #141514",
"l 	c #141414",
"m 	c #141415",
"n 	c #141515",
"o 	c #151415",
"p 	c #131313",
"q 	c #141413",
"r 	c #141313",
"s 	c #131413",
"t 	c #131314",
"u 	c #121212",
"v 	c #121211",
"w 	c #111212",
"x 	c #121112",
"y 	c #111110",
"z 	c #111010",
"A 	c #101110",
"B 	c #101011",
"C 	c #111011",
"D 	c #101111",
"E 	c #101010",
"F 	c #111111",
"G 	c #100F0F",
"H 	c #0F0F10",
"I 	c #100F10",
"J 	c #0F100F",
"K 	c #10100F",
"L 	c #0F1010",
"M 	c #0E0E0E",
"N 	c #0E0E0F",
"O 	c #0F0F0E",
"P 	c #0E0F0E",
"Q 	c #0D0C0C",
"R 	c #0D0D0D",
"S 	c #0D0D0C",
"T 	c #0C0D0D",
"U 	c #0D0C0D",
"V 	c #0B0B0C",
"W 	c #0B0C0C",
"X 	c #0C0B0B",
"Y 	c #0B0B0B",
"Z 	c #0B0C0B",
"` 	c #0A0A0A",
" .	c #0B0A0A",
"..	c #0A0A0B",
"+.	c #0A0B0A",
"@.	c #0B0B0A",
"#.	c #080909",
"$.	c #090809",
"%.	c #080908",
"&.	c #090908",
"*.	c #090909",
"=.	c #070808",
"-.	c #070807",
";.	c #080708",
">.	c #070707",
",.	c #080807",
"'.	c #070708",
").	c #080707",
"!.	c #080808",
"~.	c #060606",
"{.	c #060607",
"].	c #060706",
"^.	c #070607",
"/.	c #070606",
"(.	c #040405",
"_.	c #050505",
":.	c #040505",
"<.	c #050405",
"[.	c #050404",
"}.	c #050504",
"|.	c #040404",
"1.	c #030303",
"2.	c #030404",
"3.	c #030403",
"4.	c #040304",
"5.	c #030304",
"6.	c #040403",
"7.	c #040303",
"8.	c #020202",
"9.	c #020203",
"0.	c #030202",
"a.	c #010100",
"b.	c #010001",
"c.	c #000000",
"d.	c #010000",
"e.	c #000001",
"f.	c #010101",
"g.	c #000100",
"h.	c #000101",
"  . + + @   + . # +       $   @ # @ . + # @ % @ ",
"& & & & & & & & & & & & & & & & * & & & & & & & ",
"= - ; > , ' = > ' - > ) , ; = ) ; ) > > , , > ) ",
"! ~ { ] ~ ] ^ { ] / ] ] ! ( { ( ] _ ] ~ ( ( ] ( ",
": < : [ : < : [ : : : : : [ : < : : : : : : : : ",
"} | 1 2 3 4 4 5 5 5 | 3 | 5 } 5 | 6 | 3 | 4 } 1 ",
"7 4 8 9 0 4 7 7 0 7 a 9 0 0 0 8 0 0 b b b 0 a 0 ",
"c c d c e c c f f c g c c e c f f c c c h c c c ",
"i j k l m j k f f f n m k n f f f m j m i j o o ",
"p p q p p q p r f f f s r f f f p r q t p p r r ",
"u u v u u u u w w f f f f f f v v u u u x u x u ",
"y z y y A B C B D C f f f f E z F B y B y C z D ",
"G H H H I G H J K L f f f f G E E L K G G G L L ",
"M N O M M M M M M f f f f f f M N M M M P M M M ",
"Q R R S T R R R f f f R Q f f f T S U S U S R R ",
"V V W V X X W f f f X W X X f f f V W Y V X Z Z ",
"` `  .` ` ` ` f f ..` `  .` +.f f ..` ` ..@.` ` ",
"#.$.#.$.%.&.&.%.*.*.$.*.&.*.$.$.#.&.&.*.$.#.%.*.",
"=.=.-.;.>.,.'.'.>.-.).=.'.,.>.).>.>.>.'.,.!.,.-.",
"~.{.~.~.~.~.].^.~.~.~.~.~.~.~.~.~.~.{.~.~.~./.~.",
"(._.:.:.<._._._.:._.[.}.<.}.:.|._.<._.}.<._._.}.",
"1.2.3.4.1.1.1.5.6.7.4.7.1.7.1.6.2.1.1.1.7.1.1.3.",
"8.9.8.8.8.8.8.8.0.8.8.8.8.8.8.8.8.8.8.8.8.8.8.8.",
"a.b.c.d.a.e.f.e.a.f.b.f.a.b.f.g.g.f.b.b.f.h.b.d."};
