/* XPM */
static char * iconify_xpm[] = {
"24 24 137 2",
"  	c #1F201F",
". 	c #1F1F20",
"+ 	c #201F1F",
"@ 	c #20201F",
"# 	c #1F1F1F",
"$ 	c #1F2020",
"% 	c #1E1E1E",
"& 	c #1D1E1E",
"* 	c #1D1D1D",
"= 	c #1D1C1C",
"- 	c #1D1C1D",
"; 	c #1C1D1D",
"> 	c #1C1D1C",
", 	c #1C1C1C",
"' 	c #1D1D1C",
") 	c #1C1C1D",
"! 	c #1B1B1C",
"~ 	c #1B1C1C",
"{ 	c #1B1B1B",
"] 	c #1C1B1C",
"^ 	c #1C1B1B",
"/ 	c #1C1C1B",
"( 	c #1B1C1B",
"_ 	c #1A1A1A",
": 	c #1A1A19",
"< 	c #1A191A",
"[ 	c #191819",
"} 	c #181918",
"| 	c #191919",
"1 	c #181919",
"2 	c #181818",
"3 	c #191818",
"4 	c #191918",
"5 	c #181819",
"6 	c #171717",
"7 	c #181717",
"8 	c #171818",
"9 	c #171817",
"0 	c #181718",
"a 	c #171718",
"b 	c #181817",
"c 	c #161616",
"d 	c #151616",
"e 	c #161615",
"f 	c #151514",
"g 	c #141515",
"h 	c #151415",
"i 	c #151515",
"j 	c #141514",
"k 	c #141414",
"l 	c #141415",
"m 	c #151414",
"n 	c #141313",
"o 	c #131313",
"p 	c #131413",
"q 	c #131314",
"r 	c #131414",
"s 	c #121212",
"t 	c #121211",
"u 	c #121112",
"v 	c #111212",
"w 	c #111211",
"x 	c #101010",
"y 	c #101110",
"z 	c #111110",
"A 	c #111010",
"B 	c #101011",
"C 	c #EEEEEE",
"D 	c #101111",
"E 	c #111111",
"F 	c #111011",
"G 	c #100F0F",
"H 	c #0F0F10",
"I 	c #0F0F0F",
"J 	c #100F10",
"K 	c #0F100F",
"L 	c #0E0E0E",
"M 	c #0D0E0E",
"N 	c #0E0D0E",
"O 	c #0E0E0D",
"P 	c #0D0D0D",
"Q 	c #0D0E0D",
"R 	c #0D0C0D",
"S 	c #0D0D0C",
"T 	c #0C0C0C",
"U 	c #0C0D0D",
"V 	c #0C0D0C",
"W 	c #0B0B0B",
"X 	c #0C0C0B",
"Y 	c #0B0B0C",
"Z 	c #0B0C0C",
"` 	c #0B0C0B",
" .	c #0C0B0B",
"..	c #0A0B0A",
"+.	c #0A0A0A",
"@.	c #0B0A0B",
"#.	c #090808",
"$.	c #090809",
"%.	c #090909",
"&.	c #090908",
"*.	c #080908",
"=.	c #080909",
"-.	c #080809",
";.	c #080808",
">.	c #070808",
",.	c #070807",
"'.	c #080807",
").	c #070707",
"!.	c #080708",
"~.	c #080707",
"{.	c #070708",
"].	c #060606",
"^.	c #070606",
"/.	c #060706",
"(.	c #040505",
"_.	c #050505",
":.	c #050504",
"<.	c #040504",
"[.	c #050405",
"}.	c #030403",
"|.	c #030303",
"1.	c #030304",
"2.	c #040303",
"3.	c #030404",
"4.	c #040404",
"5.	c #040403",
"6.	c #020202",
"7.	c #020302",
"8.	c #020203",
"9.	c #010000",
"0.	c #000001",
"a.	c #000101",
"b.	c #000000",
"c.	c #010100",
"d.	c #000100",
"e.	c #010001",
"f.	c #010101",
"  .       + @     + # # # $ #   . #   $ . #   . ",
"% % % % % % % % % % % % % % % % % % % % & % % % ",
"* * * = - ; = > , - ' = > > * * ; > = ) ' * ' > ",
"! ~ { ] ~ { ^ { ! { / ~ { { ( { ^ ^ , ! ( { ^ { ",
"_ : _ : _ _ _ _ _ : _ _ _ _ _ _ _ _ _ < _ _ _ _ ",
"[ } } | 1 2 3 | | 1 4 | 3 | [ 5 1 [ 1 | | 4 } 3 ",
"6 6 7 6 6 8 7 6 6 9 6 0 9 6 7 7 6 0 7 a 9 6 b 6 ",
"c c c c c c c c c c c c c c c d c d c c c e c c ",
"f g h i j h h j j f j h k l g g i m k l l g g l ",
"n o p p n o o p o o q r o o p o o p o n q r o o ",
"s t s t s s u s s t u s v s s s t s s s s v w t ",
"x y x z A z B C C C C C C C C C C D A A y E F D ",
"G G H I G G I C C C C C C C C C C J I I J K I H ",
"L L M N M O N L O L L M M L P O O L Q L O N L N ",
"P P P R S P T P U P V U U P R U P R U U P P P P ",
"W X Y Y Z ` W ` W ` W X X `  . .Z W Y Z  .W W X ",
"..+.@.+.+...+.+.+.+.+...+.+.+.+.+.+.+.+.+.+.+.+.",
"#.$.%.&.%.%.*.$.=.%.%.=.$.$.%.-.=.$.;.%.%.$.=.=.",
">.,.'.;.,.'.,.'.).).!.~.'.~.{.!.>.>.{.;.{.{.!.'.",
"].].].].].].].^.]./.]./.].].^.].].].].].].].].].",
"(._._.:._.<.(._.:.[._._._._.<.[._.(.[.[.:._.:._.",
"}.}.|.|.|.1.2.}.|.3.}.|.1.|.|.4.}.}.5.5.}.|.2.2.",
"6.6.6.6.6.6.6.6.6.6.6.6.6.6.6.7.7.6.6.6.6.6.6.8.",
"9.0.a.b.c.9.a.d.e.a.d.0.f.c.a.f.9.e.d.a.b.f.c.f."};
