#define desk_toggled_width 12
#define desk_toggled_height 12
static unsigned char desk_toggled_bits[] = {
   0x00, 0x00, 0x00, 0x00, 0x00, 0x00, 0xf8, 0x01, 0xf8, 0x01, 0xf8, 0x01,
   0xf8, 0x01, 0xf8, 0x01, 0xf8, 0x01, 0x00, 0x00, 0x00, 0x00, 0x00, 0x00 };
