/* XPM */
static char * close_xpm[] = {
"30 30 167 2",
"  	c #202020",
". 	c #201F1F",
"+ 	c #1F1F1F",
"@ 	c #1F201F",
"# 	c #1F1F20",
"$ 	c #1F2020",
"% 	c #20201F",
"& 	c #1E1E1E",
"* 	c #1E1E1F",
"= 	c #1F1E1E",
"- 	c #1F1F1E",
"; 	c #1E1F1F",
"> 	c #1F1E1F",
", 	c #1E1F1E",
"' 	c #1E1D1E",
") 	c #1E1E1D",
"! 	c #1D1D1E",
"~ 	c #1D1E1E",
"{ 	c #1D1D1D",
"] 	c #1D1E1D",
"^ 	c #1E1D1D",
"/ 	c #1C1D1C",
"( 	c #1C1C1C",
"_ 	c #1C1C1D",
": 	c #1C1D1D",
"< 	c #1D1C1C",
"[ 	c #1D1C1D",
"} 	c #1B1B1B",
"| 	c #1B1C1B",
"1 	c #1C1B1B",
"2 	c #1B1B1C",
"3 	c #1A1A1A",
"4 	c #1B1A1A",
"5 	c #1A1B1A",
"6 	c #1A1A1B",
"7 	c #191919",
"8 	c #1A1919",
"9 	c #181818",
"0 	c #181817",
"a 	c #181718",
"b 	c #171818",
"c 	c #171717",
"d 	c #161716",
"e 	c #171716",
"f 	c #161717",
"g 	c #171617",
"h 	c #161516",
"i 	c #151615",
"j 	c #161616",
"k 	c #151616",
"l 	c #EEEEEE",
"m 	c #161615",
"n 	c #161515",
"o 	c #151415",
"p 	c #151515",
"q 	c #141515",
"r 	c #151414",
"s 	c #151514",
"t 	c #141415",
"u 	c #141514",
"v 	c #141413",
"w 	c #131414",
"x 	c #141414",
"y 	c #131413",
"z 	c #131314",
"A 	c #131313",
"B 	c #141314",
"C 	c #121213",
"D 	c #121313",
"E 	c #121312",
"F 	c #131213",
"G 	c #121212",
"H 	c #131312",
"I 	c #131212",
"J 	c #111112",
"K 	c #121211",
"L 	c #111212",
"M 	c #121112",
"N 	c #121111",
"O 	c #111211",
"P 	c #111111",
"Q 	c #101110",
"R 	c #101111",
"S 	c #111010",
"T 	c #111110",
"U 	c #101010",
"V 	c #111011",
"W 	c #101011",
"X 	c #0F0F0F",
"Y 	c #0F100F",
"Z 	c #0F1010",
"` 	c #100F10",
" .	c #0F0F10",
"..	c #100F0F",
"+.	c #10100F",
"@.	c #0E0E0F",
"#.	c #0E0E0E",
"$.	c #0F0E0E",
"%.	c #0E0F0E",
"&.	c #0F0F0E",
"*.	c #0D0D0D",
"=.	c #0E0D0E",
"-.	c #0D0D0E",
";.	c #0E0E0D",
">.	c #0D0E0E",
",.	c #0E0D0D",
"'.	c #0C0C0C",
").	c #0D0C0D",
"!.	c #0C0D0C",
"~.	c #0D0C0C",
"{.	c #0B0B0B",
"].	c #0B0C0B",
"^.	c #0C0B0B",
"/.	c #0B0A0B",
"(.	c #0A0A0A",
"_.	c #0A0B0A",
":.	c #0B0A0A",
"<.	c #0B0B0A",
"[.	c #0A0A0B",
"}.	c #090A09",
"|.	c #090909",
"1.	c #090A0A",
"2.	c #0A090A",
"3.	c #0A0909",
"4.	c #09090A",
"5.	c #080808",
"6.	c #080908",
"7.	c #080809",
"8.	c #090808",
"9.	c #070707",
"0.	c #070706",
"a.	c #060506",
"b.	c #060606",
"c.	c #050606",
"d.	c #060605",
"e.	c #050405",
"f.	c #050505",
"g.	c #050504",
"h.	c #040505",
"i.	c #050404",
"j.	c #040405",
"k.	c #030304",
"l.	c #040304",
"m.	c #040404",
"n.	c #040403",
"o.	c #030404",
"p.	c #040303",
"q.	c #030303",
"r.	c #020303",
"s.	c #030302",
"t.	c #020203",
"u.	c #030203",
"v.	c #020202",
"w.	c #020302",
"x.	c #020101",
"y.	c #020102",
"z.	c #010101",
"A.	c #010202",
"B.	c #020201",
"C.	c #010201",
"D.	c #010001",
"E.	c #000101",
"F.	c #000001",
"G.	c #010100",
"H.	c #000100",
"I.	c #000000",
"J.	c #010000",
"  . . + .   @ # + + @ + $ % . # + + # # @ % . . $ + @ @ $ @ ",
"& * = - & & + ; & & * > - ; = , * & - & , & > , * + - & & & ",
"' ) ! ~ { { & ! ] ] ] ~ { ! ! ^ ) { ] { ) { { { ' ' { ~ ] ] ",
"{ / / ( _ ( : / _ _ < < ( _ / ( < ( [ / ( / < < _ ( < _ [ ( ",
"} } } } } | } } } 1 } } 1 1 } } } | } 2 | } } } 1 } | 2 } } ",
"3 3 3 3 3 3 3 3 3 3 3 3 4 5 5 3 3 3 3 3 3 3 3 3 3 3 6 3 3 3 ",
"7 7 7 7 7 7 7 7 7 7 8 8 7 7 7 7 7 7 7 7 7 7 7 7 7 7 7 7 7 7 ",
"9 9 9 9 9 9 9 9 0 a b 9 9 9 9 9 9 9 9 9 9 9 0 9 9 9 9 9 0 b ",
"c c c c c d c c c c e e f e c c c g e c c e c c c c c c f g ",
"h i i j j j k k j l l h h h j m j m k l l m j n j j m k j j ",
"o p q r s q t p q l l l u r u q p p l l l s p q t p p q p o ",
"v w w w x w y z A A l l l w A x y l l l B A v x x x B x B A ",
"C C D C E A F G H F A l l l I F l l l E I G I A D F H A D I ",
"J K L J M N L O K M G P l l l l l l L P P M M P N M L O G O ",
"Q Q Q Q R S T S U Q S Q P l l l l R V U R U W U P U P U U T ",
"X Y X Z Y `  ...Y  .+.Z ..l l l l Y U X X Z Y Y ` X ..X  .Y ",
"@.#.$.$.%.X $.%.@.#.#.%.l l l l l l #.#.&.$.%.%.$.%.#.$.@.%.",
"*.=.*.*.-.-.-.;.*.*.-.l l l *.*.l l l >.*.*.*.-.,.*.*.*.-.*.",
"'.'.'.'.'.'.'.'.'.'.l l l '.).'.'.l l l '.'.!.'.'.~.'.!.'.'.",
"{.{.{.{.{.{.{.{.{.l l l {.{.{.{.{.{.l l l ].{.{.{.{.{.^.{.{.",
"/.(.(.(._.(.:.<._.l l (.[.[.(.[.(./.(.l l (./.[.:.[.(.(.[./.",
"}.|.}.1.2.|.|.|.}.3.}.3.3.}.|.4.|.|.3.|.}.4.}.4.3.|.3.4.|.|.",
"5.6.5.5.5.5.5.5.5.5.5.5.5.5.5.7.5.5.5.8.5.5.5.7.5.5.5.5.5.5.",
"9.9.9.9.9.9.9.9.9.9.9.9.9.9.9.9.9.9.9.9.9.9.9.9.9.9.9.9.0.9.",
"a.b.c.b.b.b.d.b.b.b.b.d.b.b.b.b.b.b.b.b.b.b.b.b.b.b.b.b.b.c.",
"e.f.f.g.h.f.f.g.f.f.i.g.f.f.f.f.j.f.f.e.f.f.h.f.f.f.f.f.g.f.",
"k.l.k.k.m.m.n.m.m.n.l.m.o.m.m.o.m.k.m.m.m.n.m.l.m.m.p.n.m.m.",
"q.r.q.s.r.t.q.q.u.q.u.q.s.v.r.q.w.u.q.r.r.s.r.s.u.q.w.u.s.u.",
"x.v.y.z.v.A.B.A.C.x.B.B.x.x.x.v.y.y.B.B.B.v.v.B.C.B.x.v.x.y.",
"D.E.E.F.G.z.H.F.G.I.D.F.H.G.J.F.I.E.z.H.G.H.D.z.D.G.H.I.z.J."};
