/* XPM */
static char * iconify_xpm[] = {
"30 30 175 2",
"  	c #1F1F20",
". 	c #1F2020",
"+ 	c #20201F",
"@ 	c #202020",
"# 	c #1F1F1F",
"$ 	c #201F1F",
"% 	c #201F20",
"& 	c #1F201F",
"* 	c #1F1F1E",
"= 	c #1F1E1E",
"- 	c #1E1E1E",
"; 	c #1E1F1E",
"> 	c #1F1E1F",
", 	c #1E1E1F",
"' 	c #1E1F1F",
") 	c #1D1E1E",
"! 	c #1D1D1D",
"~ 	c #1D1D1E",
"{ 	c #1E1E1D",
"] 	c #1D1E1D",
"^ 	c #1E1D1E",
"/ 	c #1D1D1C",
"( 	c #1C1C1C",
"_ 	c #1C1C1D",
": 	c #1C1D1C",
"< 	c #1D1C1C",
"[ 	c #1C1D1D",
"} 	c #1B1B1B",
"| 	c #1C1B1B",
"1 	c #1B1B1C",
"2 	c #1B1C1B",
"3 	c #1B1C1C",
"4 	c #1B1A1A",
"5 	c #1A1A1A",
"6 	c #1A1B1B",
"7 	c #1A1B1A",
"8 	c #1A1A1B",
"9 	c #191919",
"0 	c #191A19",
"a 	c #181818",
"b 	c #181718",
"c 	c #181817",
"d 	c #171818",
"e 	c #171717",
"f 	c #171716",
"g 	c #171617",
"h 	c #161717",
"i 	c #151616",
"j 	c #161516",
"k 	c #161616",
"l 	c #161615",
"m 	c #151516",
"n 	c #161515",
"o 	c #151615",
"p 	c #151515",
"q 	c #141515",
"r 	c #151415",
"s 	c #141415",
"t 	c #141514",
"u 	c #151514",
"v 	c #151414",
"w 	c #141414",
"x 	c #131314",
"y 	c #141413",
"z 	c #131313",
"A 	c #141314",
"B 	c #131414",
"C 	c #131413",
"D 	c #141313",
"E 	c #131212",
"F 	c #121313",
"G 	c #131213",
"H 	c #131312",
"I 	c #121312",
"J 	c #121213",
"K 	c #121212",
"L 	c #111111",
"M 	c #121112",
"N 	c #121111",
"O 	c #111211",
"P 	c #111112",
"Q 	c #121211",
"R 	c #111212",
"S 	c #111010",
"T 	c #101010",
"U 	c #101011",
"V 	c #111011",
"W 	c #101111",
"X 	c #101110",
"Y 	c #EEEEEE",
"Z 	c #0F1010",
"` 	c #100F0F",
" .	c #0F0F0F",
"..	c #0F0F10",
"+.	c #100F10",
"@.	c #0F100F",
"#.	c #0E0E0E",
"$.	c #0E0E0F",
"%.	c #0F0E0E",
"&.	c #0E0F0E",
"*.	c #0F0E0F",
"=.	c #0E0F0F",
"-.	c #0D0E0D",
";.	c #0D0D0D",
">.	c #0D0D0E",
",.	c #0E0E0D",
"'.	c #0E0D0E",
").	c #0E0D0D",
"!.	c #0D0E0E",
"~.	c #0D0C0C",
"{.	c #0C0C0C",
"].	c #0D0D0C",
"^.	c #0C0D0C",
"/.	c #0C0C0D",
"(.	c #0D0C0D",
"_.	c #0C0C0B",
":.	c #0B0C0B",
"<.	c #0B0B0C",
"[.	c #0B0B0B",
"}.	c #0C0B0B",
"|.	c #0A0A0A",
"1.	c #0A0A0B",
"2.	c #0B0B0A",
"3.	c #0A0B0B",
"4.	c #0B0A0A",
"5.	c #0A0B0A",
"6.	c #0A0909",
"7.	c #090909",
"8.	c #0A0A09",
"9.	c #09090A",
"0.	c #090A09",
"a.	c #080808",
"b.	c #090808",
"c.	c #080908",
"d.	c #080809",
"e.	c #070706",
"f.	c #070707",
"g.	c #060707",
"h.	c #060606",
"i.	c #050606",
"j.	c #050605",
"k.	c #060605",
"l.	c #060506",
"m.	c #040504",
"n.	c #050505",
"o.	c #040505",
"p.	c #050504",
"q.	c #050405",
"r.	c #040405",
"s.	c #040404",
"t.	c #030404",
"u.	c #030403",
"v.	c #040304",
"w.	c #040403",
"x.	c #040303",
"y.	c #030203",
"z.	c #030303",
"A.	c #020303",
"B.	c #020202",
"C.	c #030202",
"D.	c #030302",
"E.	c #010202",
"F.	c #010101",
"G.	c #020102",
"H.	c #020201",
"I.	c #010201",
"J.	c #020101",
"K.	c #010102",
"L.	c #000101",
"M.	c #010001",
"N.	c #010100",
"O.	c #000000",
"P.	c #000100",
"Q.	c #010000",
"R.	c #000001",
"  . . +   @ + # $ % # % @ + $ #   + . . + $ + & % . $   $ # ",
"* = - - ; - > - = , - = > ' = * - > , * = ; , > - , - - * ; ",
") ! ! ~ { ! ~ ! ] ~ ) ] ! ~ ] - - ] ] ~ ! { ! ! ~ ! ! ] ^ ! ",
"/ ( ( _ : ( : _ < ( ( ( ( ( _ : _ _ [ / ( < _ ( ( < ( ( : ( ",
"} | | } } } } } } 1 } 1 } 1 2 1 } } } | } 1 | } } } } } 3 } ",
"4 5 5 6 7 8 5 5 7 7 5 5 4 5 5 5 5 5 7 5 7 7 5 5 5 5 5 5 5 5 ",
"9 9 9 9 9 9 9 9 9 9 9 9 9 9 9 9 9 9 9 9 9 9 9 9 9 9 9 0 9 9 ",
"a a b a a a a a a a a a a a a b c a a a a a a a a a a a d a ",
"e f f e e e e g e e e g e e e e e h e e h h e e h e e f e e ",
"i j k l m i l k k k l l k i k k j l k j k k i k k n j o k k ",
"p p q q r s t u p u p p p r p v u p q u p t p r u p p p u p ",
"w x y w y w z y A y y A B w B B x w x C y D A w w A B A y z ",
"E F E F G H z I z H G G G F J F I J F H z z K K J F H z I G ",
"L M N O P N M O Q K R P O N R R K N O Q K K P Q Q Q M O Q L ",
"S T U S V W L S X Y Y Y Y Y Y Y Y Y Y Y Y U S T S T U T S X ",
"Z `  ...+. .@.+. .Y Y Y Y Y Y Y Y Y Y Y Y  .` +.@... .@. .` ",
"#.#.$.%.#.%.%.#.#.&.#.#.#.#.#.#.&.*.#.%.#.#.#.&.$.#.=.%.%.#.",
"-.;.;.-.;.>.>.;.,.;.'.;.;.;.;.;.;.-.;.;.;.;.;.>.;.'.;.).!.;.",
"~.{.~.].{.~.~.^.{.].^././.].^.{.{.~.(.~.(.{.(./.~.{./.].{.~.",
"_.:.<.[._.[.:.[.:.:.<.:.:.}.[.}.:.}.[.:.<.:.[.:.<.{.{.:.}.[.",
"|.|.|.|.|.|.|.1.|.|.|.2.|.|.2.|.|.|.3.4.|.|.5.5.2.5.1.|.|.4.",
"6.7.7.8.8.7.7.7.7.6.7.6.7.7.7.7.9.6.7.7.7.6.7.7.7.6.9.0.0.7.",
"a.a.a.a.a.a.a.b.c.b.d.d.a.c.a.a.c.a.a.a.a.a.a.a.a.a.a.a.a.a.",
"e.f.f.f.f.f.f.g.f.f.f.f.f.f.f.f.f.f.f.f.e.f.f.e.f.f.f.f.e.f.",
"h.i.i.h.i.h.h.j.k.h.h.h.h.h.h.h.h.h.i.l.h.h.h.h.h.h.h.h.h.h.",
"m.n.n.o.p.n.n.o.n.o.n.q.r.n.n.n.q.n.n.n.p.n.o.o.q.n.q.n.n.p.",
"s.t.t.s.s.s.t.u.s.t.s.v.w.s.s.t.s.s.s.u.w.x.s.t.u.s.t.v.w.w.",
"y.y.y.z.A.z.A.z.y.B.C.z.z.z.y.z.z.D.z.C.C.y.y.B.A.D.A.z.y.A.",
"E.F.E.G.H.B.H.E.I.B.J.H.E.H.B.E.G.B.G.F.B.J.I.K.I.B.B.E.G.J.",
"L.M.N.M.N.O.F.N.O.P.Q.M.Q.L.N.P.L.R.N.F.N.N.N.M.P.N.O.M.O.Q."};
