/* XPM */
static char * max_xpm[] = {
"30 30 170 2",
"  	c #1F1F20",
". 	c #1F2020",
"+ 	c #201F1F",
"@ 	c #20201F",
"# 	c #1F1F1F",
"$ 	c #202020",
"% 	c #1F201F",
"& 	c #1F1E1F",
"* 	c #1E1E1F",
"= 	c #1E1F1F",
"- 	c #1F1E1E",
"; 	c #1E1E1E",
"> 	c #1F1F1E",
", 	c #1E1F1E",
"' 	c #1D1D1E",
") 	c #1D1E1D",
"! 	c #1D1D1D",
"~ 	c #1E1D1E",
"{ 	c #1E1E1D",
"] 	c #1D1E1E",
"^ 	c #1E1D1D",
"/ 	c #1C1C1C",
"( 	c #1C1C1D",
"_ 	c #1D1C1C",
": 	c #1C1D1C",
"< 	c #1C1D1D",
"[ 	c #1D1D1C",
"} 	c #1C1C1B",
"| 	c #1B1B1B",
"1 	c #1B1C1B",
"2 	c #1B1B1C",
"3 	c #1C1B1C",
"4 	c #1C1B1B",
"5 	c #1A1A1A",
"6 	c #1A1B1A",
"7 	c #1A1A1B",
"8 	c #1B1A1A",
"9 	c #191919",
"0 	c #181818",
"a 	c #181817",
"b 	c #181718",
"c 	c #171818",
"d 	c #161717",
"e 	c #171717",
"f 	c #171716",
"g 	c #171617",
"h 	c #161616",
"i 	c #151616",
"j 	c #161515",
"k 	c #161615",
"l 	c #EEEEEE",
"m 	c #151515",
"n 	c #141514",
"o 	c #151514",
"p 	c #141515",
"q 	c #151415",
"r 	c #151414",
"s 	c #141415",
"t 	c #141414",
"u 	c #131314",
"v 	c #131413",
"w 	c #141413",
"x 	c #131313",
"y 	c #141314",
"z 	c #131213",
"A 	c #121212",
"B 	c #121313",
"C 	c #131212",
"D 	c #131312",
"E 	c #121213",
"F 	c #121312",
"G 	c #111111",
"H 	c #121211",
"I 	c #111211",
"J 	c #121111",
"K 	c #111212",
"L 	c #121112",
"M 	c #111112",
"N 	c #101010",
"O 	c #111011",
"P 	c #101110",
"Q 	c #111110",
"R 	c #101011",
"S 	c #111010",
"T 	c #101111",
"U 	c #0F0F0F",
"V 	c #10100F",
"W 	c #0F0F10",
"X 	c #100F0F",
"Y 	c #100F10",
"Z 	c #0F100F",
"` 	c #0F1010",
" .	c #0E0E0E",
"..	c #0E0E0F",
"+.	c #0E0F0E",
"@.	c #0E0F0F",
"#.	c #0F0E0E",
"$.	c #0F0E0F",
"%.	c #0F0F0E",
"&.	c #0E0D0D",
"*.	c #0D0D0D",
"=.	c #0D0E0D",
"-.	c #0E0D0E",
";.	c #0D0D0E",
">.	c #0E0E0D",
",.	c #0D0C0C",
"'.	c #0D0D0C",
").	c #0C0C0C",
"!.	c #0C0D0D",
"~.	c #0C0D0C",
"{.	c #0C0C0D",
"].	c #0D0C0D",
"^.	c #0B0C0B",
"/.	c #0B0B0B",
"(.	c #0B0B0C",
"_.	c #0C0B0C",
":.	c #0C0B0B",
"<.	c #0C0C0B",
"[.	c #0B0C0C",
"}.	c #0B0A0A",
"|.	c #0A0A0B",
"1.	c #0A0A0A",
"2.	c #0A0B0A",
"3.	c #090909",
"4.	c #090A09",
"5.	c #09090A",
"6.	c #0A090A",
"7.	c #0A0909",
"8.	c #080808",
"9.	c #080809",
"0.	c #090808",
"a.	c #070707",
"b.	c #060606",
"c.	c #060605",
"d.	c #050606",
"e.	c #060506",
"f.	c #050605",
"g.	c #050505",
"h.	c #050504",
"i.	c #050405",
"j.	c #040505",
"k.	c #050404",
"l.	c #030404",
"m.	c #040403",
"n.	c #030304",
"o.	c #040304",
"p.	c #040404",
"q.	c #030403",
"r.	c #030302",
"s.	c #030203",
"t.	c #020303",
"u.	c #020202",
"v.	c #030303",
"w.	c #020203",
"x.	c #030202",
"y.	c #020302",
"z.	c #010202",
"A.	c #010102",
"B.	c #010201",
"C.	c #020201",
"D.	c #020102",
"E.	c #020101",
"F.	c #010101",
"G.	c #000001",
"H.	c #000000",
"I.	c #010001",
"J.	c #010100",
"K.	c #010000",
"L.	c #000100",
"M.	c #000101",
"  . + . . @     + . # # $   + %   @ $ # % % . # # @ $ # % + ",
"& * = = = - ; * = > > > - # - = # & = ; ; ; ; = ; , - ; * * ",
"' ) ! ! ~ ~ ! ! ! ! ! { ] ^ ) ! { ) ] ^ ) ! ) ' ! ! ) ] ! ! ",
"/ ( _ : : / < [ / / / ( / : _ ( ( _ / / / / / / _ / / / [ ! ",
"} | | 1 2 | | | | 2 2 1 3 4 2 | 1 / | | 3 | | | 1 | 1 4 | 4 ",
"5 6 7 5 5 7 5 5 5 5 5 8 5 5 5 5 5 5 5 5 5 6 7 5 5 6 5 5 6 5 ",
"9 9 9 9 9 9 9 9 9 9 9 9 9 9 9 9 9 9 9 9 9 9 9 9 9 9 9 9 9 9 ",
"0 0 0 a 0 0 0 b 0 0 0 c c 0 0 0 0 0 0 0 0 c 0 0 0 0 0 0 0 a ",
"d e e f f e e e d e e e e e e e g e e e d e f e e e g e e f ",
"h h h i j i i k h l l l l l l l l l l l l h k h k h h k m h ",
"n m m m o p m o m l l l l l l l l l l l l m m m m q o p r s ",
"t u v w t x w v t l l l l l l l l l l l l t x y w y t v x y ",
"z A z z x B B C x l B A C D x B C A x z l D E F A x B z E A ",
"G H I J J K L L L l I H L M J L I J K K l A J A H M G K M K ",
"N O P P Q R R S P l P S N R P N S N S S l N N T Q P Q O R Q ",
"U U U U V V V U W l X X U Y U Z U Y U Z l Z ` U U Y U Z U X ",
" ...+. . .@.#. .#.l  . . . . . .$. ... .l  .U  . .+.%.#...#.",
"&.*.*.=.&.=.*.=.=.l -.;.*.*.*.>.*.=.=.*.l *.*.*.*.*.*.;.&.*.",
",.'.).!.~.{.'.).,.l ~.,.).!.,.].{.{.).].l {.~.{.*.).'.,.).].",
"^./.(././._././.:.l /.(.<./.<.(./.(./.[.l _.<./.:.<./.:./.(.",
"}.|.1.1.2.2.1.1.|.l l l l l l l l l l l l 1.1.1.}.2.1.1.|.1.",
"3.3.3.4.3.3.4.3.4.3.5.6.7.3.3.3.3.3.3.7.3.3.4.5.4.3.3.3.3.7.",
"8.8.8.8.8.8.8.8.8.8.8.8.8.8.8.9.8.8.8.8.8.8.8.8.8.8.0.8.8.8.",
"a.a.a.a.a.a.a.a.a.a.a.a.a.a.a.a.a.a.a.a.a.a.a.a.a.a.a.a.a.a.",
"b.b.b.b.b.b.b.b.b.b.b.b.b.c.b.b.b.d.b.c.b.d.b.b.b.b.e.b.b.f.",
"g.g.g.g.h.g.i.h.h.i.j.g.g.g.g.g.g.g.g.i.g.k.j.g.g.j.g.g.j.j.",
"l.m.n.o.p.o.o.q.p.p.m.m.l.l.p.p.m.o.l.m.l.p.o.q.q.p.p.p.p.m.",
"r.s.t.u.v.v.w.s.x.s.t.x.y.v.v.s.t.r.x.v.w.v.s.v.y.v.y.v.s.v.",
"z.A.B.C.z.u.z.B.D.B.A.u.u.z.E.A.u.E.A.u.D.E.z.F.E.z.A.D.A.u.",
"F.G.G.H.I.F.G.J.K.K.F.L.F.I.M.H.J.J.L.M.K.J.I.K.I.M.K.F.G.L."};
