/* XPM */
static char * max_dark_xpm[] = {
"24 24 134 2",
"  	c #201F1F",
". 	c #1F1F1F",
"+ 	c #202020",
"@ 	c #1F1F20",
"# 	c #1F201F",
"$ 	c #201F20",
"% 	c #20201F",
"& 	c #1E1E1E",
"* 	c #1E1D1E",
"= 	c #1D1E1E",
"- 	c #1D1C1D",
"; 	c #1D1C1C",
"> 	c #1C1C1C",
", 	c #1D1D1D",
"' 	c #1C1D1C",
") 	c #1D1D1C",
"! 	c #1C1D1D",
"~ 	c #1C1C1D",
"{ 	c #1B1B1B",
"] 	c #1C1C1B",
"^ 	c #1C1B1C",
"/ 	c #1B1B1C",
"( 	c #1B1C1B",
"_ 	c #1B1C1C",
": 	c #1A1A1A",
"< 	c #191A1A",
"[ 	c #1A191A",
"} 	c #181919",
"| 	c #191818",
"1 	c #191919",
"2 	c #191819",
"3 	c #191918",
"4 	c #181918",
"5 	c #181818",
"6 	c #181819",
"7 	c #181718",
"8 	c #171817",
"9 	c #171818",
"0 	c #171717",
"a 	c #171718",
"b 	c #181817",
"c 	c #181717",
"d 	c #151616",
"e 	c #161616",
"f 	c #161516",
"g 	c #404040",
"h 	c #161615",
"i 	c #151515",
"j 	c #151414",
"k 	c #151514",
"l 	c #151415",
"m 	c #141514",
"n 	c #141415",
"o 	c #141515",
"p 	c #141413",
"q 	c #131413",
"r 	c #131313",
"s 	c #141313",
"t 	c #131314",
"u 	c #121212",
"v 	c #111212",
"w 	c #121112",
"x 	c #121211",
"y 	c #111112",
"z 	c #101010",
"A 	c #111011",
"B 	c #111111",
"C 	c #111010",
"D 	c #101011",
"E 	c #111110",
"F 	c #10100F",
"G 	c #100F0F",
"H 	c #0F0F0F",
"I 	c #0F0F10",
"J 	c #100F10",
"K 	c #0D0E0E",
"L 	c #0E0D0E",
"M 	c #0E0E0E",
"N 	c #0E0E0D",
"O 	c #0D0E0D",
"P 	c #0D0D0E",
"Q 	c #0D0C0C",
"R 	c #0D0D0D",
"S 	c #0D0C0D",
"T 	c #0C0D0D",
"U 	c #0D0D0C",
"V 	c #0C0B0C",
"W 	c #0B0B0B",
"X 	c #0B0C0B",
"Y 	c #0C0C0B",
"Z 	c #0C0C0C",
"` 	c #0B0B0C",
" .	c #0C0B0B",
"..	c #0A0A0A",
"+.	c #0B0A0A",
"@.	c #0A0B0A",
"#.	c #0A0A0B",
"$.	c #090909",
"%.	c #090908",
"&.	c #090809",
"*.	c #080909",
"=.	c #070708",
"-.	c #080707",
";.	c #070707",
">.	c #070807",
",.	c #080807",
"'.	c #070808",
").	c #080808",
"!.	c #080708",
"~.	c #060606",
"{.	c #060607",
"].	c #060706",
"^.	c #070606",
"/.	c #050504",
"(.	c #040504",
"_.	c #050405",
":.	c #040405",
"<.	c #040505",
"[.	c #050505",
"}.	c #040304",
"|.	c #030304",
"1.	c #040303",
"2.	c #030403",
"3.	c #030303",
"4.	c #020202",
"5.	c #020302",
"6.	c #010101",
"7.	c #000100",
"8.	c #010000",
"9.	c #000101",
"0.	c #010100",
"a.	c #010001",
"b.	c #000001",
"c.	c #000000",
"  . + + . @ # @ . @ + # . $ @ @ #   $ $   . % . ",
"& & & & & & & & & * & & & & = & & & & & & & & & ",
"- ; > > , ; , > ' ) ! - ~ , , , ! - ; ~ ; - ; , ",
"{ { { ] { ^ { { ] / ( ( / / ( / { ^ / / _ _ { / ",
": : : : : : : < : : : : : : : : : : [ : : [ : : ",
"} | 1 2 } 3 1 2 2 4 | } 5 | 2 } 2 1 | 2 2 1 6 5 ",
"7 8 9 0 a 8 b 0 c 0 0 8 0 0 0 0 8 5 0 0 0 0 7 b ",
"d e f e e e e g g g g g g g g g g e e e e h f e ",
"i j k l i m j g g g g g g g g g g n o n i o o m ",
"p q r r r r s g r r t s r s r t g r r r r q r r ",
"u u u u u u u g v u w v u x u y g u u u w u u u ",
"z A B C B z C g A A B D D E B D g D A z z z E C ",
"F G F H G I I g I H H J F H J H g I I H H H I H ",
"K L M N K M M g M N M O M M M P g M K M M M N L ",
"Q R R R S T T g S U S R T R R S g R Q R R R R T ",
"V V V V W X V g Y W Y Z W W ` X g W Y  . .X V W ",
"............+.g g g g g g g g g g @.......#.#...",
"$.$.%.$.$.$.&.*.$.$.%.*.%.*.$.$.$.*.&.*.%.$.$.$.",
"=.-.;.>.,.;.;.'.=.-.>.).,.>.;.!.=.!.!.>.-.,.-.;.",
"~.~.~.~.{.{.~.].~.].~.{.~.~.~.~.~.~.^.~.~.~.~.].",
"/.(._.(.:.<._.[.(.[.<.[.[.[.[.<.[.<./.[.[.[.[.[.",
"}.|.1.}.2.3.|.|.3.}.2.3.|.3.3.3.|.3.}.|.3.}.3.3.",
"4.4.4.4.4.4.4.4.4.4.4.4.4.4.4.4.4.5.4.4.4.4.4.4.",
"6.7.6.8.9.0.9.a.b.9.0.0.7.0.6.b.c.8.c.6.8.9.7.9."};
