#define max_toggled_width 12
#define max_toggled_height 12
static unsigned char max_toggled_bits[] = {
   0xf8, 0x0f, 0xf8, 0x0f, 0x08, 0x08, 0xff, 0x09, 0xff, 0x09, 0x01, 0x09,
   0x01, 0x09, 0x01, 0x09, 0x01, 0x0f, 0x01, 0x01, 0x01, 0x01, 0xff, 0x01 };
